<svg width="32" height="32" viewBox="0 0 32 32" fill="none" xmlns="http://www.w3.org/2000/svg">
<g clip-path="url(#clip0_496_5610)">
<path d="M9.73278 26.6667C9.61287 26.6666 9.495 26.6436 9.39043 26.5998C9.28587 26.5559 9.19812 26.4928 9.13559 26.4164C9.07306 26.34 9.03784 26.2528 9.03331 26.1633C9.02879 26.0738 9.0551 25.985 9.10973 25.9052L14.9103 17.8858H6.38243C6.09022 17.8858 5.64687 17.8469 5.43863 17.5132C5.24718 17.2084 5.3429 16.9186 5.51756 16.6314L11.5515 5.3417C11.6825 5.25765 23.1425 5.83468 23.3071 5.83468C23.427 5.83504 23.5447 5.85837 23.649 5.90244C23.7533 5.94651 23.8408 6.00984 23.903 6.08637C23.9651 6.1629 24 6.25007 24.0042 6.33954C24.0083 6.42901 23.9817 6.51778 23.9268 6.59736L17.5167 14.1238H25.9672C26.2595 14.1238 26.5198 14.2593 26.6239 14.4638C26.6728 14.5639 26.6799 14.6728 26.6443 14.7761C26.6086 14.8794 26.5318 14.9721 26.424 15.042L10.1912 26.54C10.0635 26.6217 9.90093 26.6666 9.73278 26.6667Z" fill="#FFD500"/>
</g>
<defs>
<clipPath id="clip0_496_5610">
<rect width="32" height="32" fill="white"/>
</clipPath>
</defs>
</svg>
