<svg width="201" height="107" viewBox="0 0 201 107" fill="none" xmlns="http://www.w3.org/2000/svg">
<g opacity="0.7">
<mask id="path-1-outside-1_150_2880" maskUnits="userSpaceOnUse" x="14.3389" y="0.499817" width="177" height="107" fill="black">
<rect fill="white" x="14.3389" y="0.499817" width="177" height="107"/>
<path d="M189.808 48.7528C189.659 49.7658 189.535 50.3955 189.505 50.5453C186.559 64.5789 176.983 76.4522 164.149 85.6017C163.929 85.758 163.707 85.9144 163.485 86.0707C163.23 86.2489 162.973 86.4275 162.715 86.5992C160.881 87.8588 158.983 89.0611 157.033 90.2084C156.968 90.248 156.9 90.2854 156.835 90.3227C156.425 90.5651 156.015 90.8005 155.601 91.0319C154.704 91.545 153.795 92.0405 152.878 92.5247C151.096 93.4718 149.276 94.3702 147.426 95.2222C146.951 95.4424 146.474 95.6606 145.995 95.872C139.556 98.7435 132.787 101.067 125.951 102.8C123.69 103.374 121.424 103.883 119.158 104.326C113.146 105.504 107.152 106.213 101.356 106.426C96.8549 106.594 92.0461 106.477 87.0914 106.056C85.126 105.889 83.1389 105.678 81.1365 105.413C77.2995 104.914 73.4146 104.235 69.5515 103.37C69.1723 103.286 68.7954 103.198 68.4163 103.11C67.9565 103.002 67.499 102.892 67.0392 102.78C64.7558 102.218 62.4854 101.588 60.2412 100.892C59.7618 100.747 59.2846 100.595 58.8097 100.441C58.7269 100.415 58.6462 100.388 58.5656 100.362C58.4175 100.311 58.2671 100.263 58.1168 100.212C55.2951 99.2764 52.5214 98.2304 49.8327 97.0699C49.6737 97.0016 49.5168 96.9334 49.3577 96.8629C48.6191 96.5414 47.887 96.2111 47.1636 95.8698C44.9608 94.8348 42.8255 93.7206 40.7686 92.5247C39.4243 91.7452 38.1169 90.9306 36.8488 90.0762C36.6135 89.9197 36.3782 89.7614 36.1451 89.6006C35.3716 89.0655 34.6133 88.5194 33.8703 87.9555C33.0598 87.3457 32.2689 86.7159 31.4997 86.0707C24.9086 80.5458 19.8798 73.8074 17.348 65.757C17.1257 65.0455 16.9187 64.3234 16.7335 63.5857C15.4676 58.5981 15.0449 53.0532 15.5417 47.5791C16.4002 38.0641 20.0323 28.7715 26.8195 23.0308C32.5151 18.2106 40.0758 16.1913 47.1636 15.5153C47.2094 15.5085 47.2573 15.5065 47.3052 15.5021C56.4935 14.6455 64.856 16.0372 67.2724 16.4842C75.6828 18.0454 83.3045 21.4101 95.9528 19.9722C96.9682 19.8555 100.452 19.4327 106.804 17.6689C106.941 17.6314 107.08 17.5916 107.222 17.5522C107.834 17.3802 108.431 17.2062 109.013 17.0323C127.037 11.6661 131.224 5.76246 141.879 3.02532C142.618 2.83375 143.385 2.66199 144.171 2.50564C145.343 2.27663 146.564 2.08506 147.821 1.94193C158.201 0.759438 171.017 2.74787 179.698 10.869C188.202 18.8249 190.254 30.3328 190.413 38.9141C190.494 43.1839 190.104 46.7313 189.808 48.7528Z"/>
</mask>
<path d="M189.808 48.7528C189.659 49.7658 189.535 50.3955 189.505 50.5453C186.559 64.5789 176.983 76.4522 164.149 85.6017C163.929 85.758 163.707 85.9144 163.485 86.0707C163.23 86.2489 162.973 86.4275 162.715 86.5992C160.881 87.8588 158.983 89.0611 157.033 90.2084C156.968 90.248 156.9 90.2854 156.835 90.3227C156.425 90.5651 156.015 90.8005 155.601 91.0319C154.704 91.545 153.795 92.0405 152.878 92.5247C151.096 93.4718 149.276 94.3702 147.426 95.2222C146.951 95.4424 146.474 95.6606 145.995 95.872C139.556 98.7435 132.787 101.067 125.951 102.8C123.69 103.374 121.424 103.883 119.158 104.326C113.146 105.504 107.152 106.213 101.356 106.426C96.8549 106.594 92.0461 106.477 87.0914 106.056C85.126 105.889 83.1389 105.678 81.1365 105.413C77.2995 104.914 73.4146 104.235 69.5515 103.37C69.1723 103.286 68.7954 103.198 68.4163 103.11C67.9565 103.002 67.499 102.892 67.0392 102.78C64.7558 102.218 62.4854 101.588 60.2412 100.892C59.7618 100.747 59.2846 100.595 58.8097 100.441C58.7269 100.415 58.6462 100.388 58.5656 100.362C58.4175 100.311 58.2671 100.263 58.1168 100.212C55.2951 99.2764 52.5214 98.2304 49.8327 97.0699C49.6737 97.0016 49.5168 96.9334 49.3577 96.8629C48.6191 96.5414 47.887 96.2111 47.1636 95.8698C44.9608 94.8348 42.8255 93.7206 40.7686 92.5247C39.4243 91.7452 38.1169 90.9306 36.8488 90.0762C36.6135 89.9197 36.3782 89.7614 36.1451 89.6006C35.3716 89.0655 34.6133 88.5194 33.8703 87.9555C33.0598 87.3457 32.2689 86.7159 31.4997 86.0707C24.9086 80.5458 19.8798 73.8074 17.348 65.757C17.1257 65.0455 16.9187 64.3234 16.7335 63.5857C15.4676 58.5981 15.0449 53.0532 15.5417 47.5791C16.4002 38.0641 20.0323 28.7715 26.8195 23.0308C32.5151 18.2106 40.0758 16.1913 47.1636 15.5153C47.2094 15.5085 47.2573 15.5065 47.3052 15.5021C56.4935 14.6455 64.856 16.0372 67.2724 16.4842C75.6828 18.0454 83.3045 21.4101 95.9528 19.9722C96.9682 19.8555 100.452 19.4327 106.804 17.6689C106.941 17.6314 107.08 17.5916 107.222 17.5522C107.834 17.3802 108.431 17.2062 109.013 17.0323C127.037 11.6661 131.224 5.76246 141.879 3.02532C142.618 2.83375 143.385 2.66199 144.171 2.50564C145.343 2.27663 146.564 2.08506 147.821 1.94193C158.201 0.759438 171.017 2.74787 179.698 10.869C188.202 18.8249 190.254 30.3328 190.413 38.9141C190.494 43.1839 190.104 46.7313 189.808 48.7528Z" fill="#97AAB3"/>
<path d="M189.505 50.5453L189.995 50.6451L189.994 50.648L189.505 50.5453ZM164.149 85.6017L164.439 86.0088L164.439 86.0093L164.149 85.6017ZM163.485 86.0707L163.772 86.4797L163.771 86.4806L163.485 86.0707ZM162.715 86.5992L162.432 86.187L162.438 86.1835L162.715 86.5992ZM157.033 90.2084L156.774 89.7808L156.779 89.7774L157.033 90.2084ZM156.835 90.3227L156.58 89.8923L156.587 89.8881L156.835 90.3227ZM155.601 91.0319L155.353 90.5978L155.357 90.5955L155.601 91.0319ZM152.878 92.5247L152.643 92.0832L152.644 92.0825L152.878 92.5247ZM147.426 95.2222L147.216 94.7686L147.217 94.768L147.426 95.2222ZM145.995 95.872L145.791 95.4154L145.793 95.4145L145.995 95.872ZM125.951 102.8L125.828 102.315L125.829 102.315L125.951 102.8ZM119.158 104.326L119.062 103.835L119.062 103.835L119.158 104.326ZM101.356 106.426L101.338 105.927L101.338 105.927L101.356 106.426ZM87.0914 106.056L87.0491 106.555L87.0489 106.555L87.0914 106.056ZM81.1365 105.413L81.2011 104.918L81.2019 104.918L81.1365 105.413ZM69.5515 103.37L69.659 102.881L69.6608 102.882L69.5515 103.37ZM68.4163 103.11L68.3031 103.597L68.302 103.597L68.4163 103.11ZM67.0392 102.78L66.9206 103.266L66.9198 103.265L67.0392 102.78ZM60.2412 100.892L60.386 100.414L60.3893 100.415L60.2412 100.892ZM58.8097 100.441L58.9617 99.9649L58.964 99.9656L58.8097 100.441ZM58.5656 100.362L58.411 100.838L58.4039 100.835L58.5656 100.362ZM58.1168 100.212L58.2742 99.7376L58.2764 99.7384L58.1168 100.212ZM49.8327 97.0699L50.0299 96.6104L50.0309 96.6108L49.8327 97.0699ZM49.3577 96.8629L49.5573 96.4045L49.5602 96.4058L49.3577 96.8629ZM47.1636 95.8698L47.3762 95.4173L47.377 95.4176L47.1636 95.8698ZM40.7686 92.5247L41.0194 92.0921L41.02 92.0924L40.7686 92.5247ZM36.8488 90.0762L37.1258 89.66L37.1282 89.6616L36.8488 90.0762ZM36.1451 89.6006L35.8612 90.0122L35.8606 90.0118L36.1451 89.6006ZM33.8703 87.9555L34.1709 87.5559L34.1726 87.5572L33.8703 87.9555ZM31.4997 86.0707L31.8209 85.6876L31.8211 85.6877L31.4997 86.0707ZM17.348 65.757L16.871 65.907L16.8707 65.906L17.348 65.757ZM16.7335 63.5857L17.2182 63.4627L17.2185 63.464L16.7335 63.5857ZM15.5417 47.5791L16.0397 47.6241L16.0397 47.6243L15.5417 47.5791ZM26.8195 23.0308L27.1425 23.4125L27.1424 23.4126L26.8195 23.0308ZM47.1636 15.5153L47.2374 16.0098L47.2243 16.0118L47.2111 16.013L47.1636 15.5153ZM47.3052 15.5021L47.3516 15.9999L47.351 16L47.3052 15.5021ZM67.2724 16.4842L67.3633 15.9925L67.3636 15.9926L67.2724 16.4842ZM95.9528 19.9722L96.0099 20.4689L96.0093 20.469L95.9528 19.9722ZM106.804 17.6689L106.67 17.1871L106.672 17.1865L106.804 17.6689ZM107.222 17.5522L107.357 18.0335L107.356 18.0339L107.222 17.5522ZM109.013 17.0323L108.87 16.5532L108.87 16.553L109.013 17.0323ZM141.879 3.02532L142.005 3.50931L142.003 3.5096L141.879 3.02532ZM144.171 2.50564L144.074 2.01523L144.075 2.01492L144.171 2.50564ZM147.821 1.94193L147.877 2.43871L147.877 2.43872L147.821 1.94193ZM179.698 10.869L179.356 11.2341V11.2341L179.698 10.869ZM190.413 38.9141L189.913 38.9236L189.913 38.9234L190.413 38.9141ZM189.808 48.7528L190.302 48.8252C190.153 49.8482 190.027 50.4872 189.995 50.6451L189.505 50.5453L189.015 50.4455C189.044 50.3039 189.166 49.6833 189.313 48.6805L189.808 48.7528ZM189.505 50.5453L189.994 50.648C187.014 64.8436 177.337 76.8136 164.439 86.0088L164.149 85.6017L163.859 85.1946C176.628 76.0908 186.104 64.3141 189.015 50.4426L189.505 50.5453ZM164.149 85.6017L164.439 86.0093C164.218 86.1664 163.994 86.3235 163.772 86.4797L163.485 86.0707L163.197 85.6618C163.419 85.5053 163.641 85.3497 163.86 85.1941L164.149 85.6017ZM163.485 86.0707L163.771 86.4806C163.516 86.659 163.255 86.8401 162.993 87.015L162.715 86.5992L162.438 86.1835C162.69 86.0148 162.944 85.8388 163.198 85.6609L163.485 86.0707ZM162.715 86.5992L162.998 87.0114C161.154 88.278 159.246 89.4865 157.287 90.6393L157.033 90.2084L156.779 89.7774C158.72 88.6357 160.608 87.4396 162.432 86.187L162.715 86.5992ZM157.033 90.2084L157.292 90.6359C157.219 90.6803 157.141 90.7238 157.082 90.7572L156.835 90.3227L156.587 89.8881C156.659 89.8471 156.716 89.8157 156.774 89.7808L157.033 90.2084ZM156.835 90.3227L157.089 90.7529C156.676 90.9976 156.263 91.235 155.845 91.4684L155.601 91.0319L155.357 90.5955C155.768 90.366 156.174 90.1326 156.58 89.8924L156.835 90.3227ZM155.601 91.0319L155.85 91.466C154.946 91.9824 154.033 92.4806 153.111 92.9669L152.878 92.5247L152.644 92.0825C153.558 91.6004 154.461 91.1076 155.353 90.5978L155.601 91.0319ZM152.878 92.5247L153.113 92.9662C151.321 93.918 149.494 94.8206 147.636 95.6763L147.426 95.2222L147.217 94.768C149.059 93.9198 150.87 93.0256 152.643 92.0832L152.878 92.5247ZM147.426 95.2222L147.637 95.6758C147.16 95.8967 146.68 96.1163 146.197 96.3295L145.995 95.872L145.793 95.4145C146.268 95.2049 146.743 94.9881 147.216 94.7686L147.426 95.2222ZM145.995 95.872L146.199 96.3287C139.733 99.2122 132.936 101.545 126.074 103.284L125.951 102.8L125.829 102.315C132.637 100.589 139.38 98.2747 145.791 95.4154L145.995 95.872ZM125.951 102.8L126.075 103.284C123.804 103.861 121.529 104.372 119.254 104.816L119.158 104.326L119.062 103.835C121.319 103.394 123.576 102.887 125.828 102.315L125.951 102.8ZM119.158 104.326L119.254 104.816C113.218 105.999 107.198 106.711 101.375 106.926L101.356 106.426L101.338 105.927C107.106 105.714 113.074 105.008 119.062 103.835L119.158 104.326ZM101.356 106.426L101.375 106.926C96.852 107.094 92.0229 106.977 87.0491 106.555L87.0914 106.056L87.1336 105.558C92.0693 105.977 96.8577 106.093 101.338 105.927L101.356 106.426ZM87.0914 106.056L87.0489 106.555C85.0765 106.387 83.0817 106.174 81.0711 105.909L81.1365 105.413L81.2019 104.918C83.1961 105.181 85.1755 105.391 87.1338 105.558L87.0914 106.056ZM81.1365 105.413L81.0719 105.909C77.2204 105.407 73.3206 104.727 69.4421 103.858L69.5515 103.37L69.6608 102.882C73.5086 103.744 77.3786 104.42 81.2011 104.918L81.1365 105.413ZM69.5515 103.37L69.444 103.858C69.0614 103.774 68.6811 103.685 68.3031 103.597L68.4163 103.11L68.5294 102.623C68.9097 102.711 69.2833 102.799 69.659 102.881L69.5515 103.37ZM68.4163 103.11L68.302 103.597C67.8405 103.489 67.3814 103.378 66.9206 103.266L67.0392 102.78L67.1579 102.294C67.6165 102.406 68.0726 102.516 68.5305 102.623L68.4163 103.11ZM67.0392 102.78L66.9198 103.265C64.6269 102.701 62.3469 102.069 60.093 101.37L60.2412 100.892L60.3893 100.415C62.6239 101.108 64.8847 101.735 67.1586 102.294L67.0392 102.78ZM60.2412 100.892L60.0963 101.371C59.6125 101.225 59.1319 101.071 58.6553 100.917L58.8097 100.441L58.964 99.9656C59.4374 100.119 59.9111 100.27 60.386 100.414L60.2412 100.892ZM58.8097 100.441L58.6576 100.918C58.5733 100.891 58.4884 100.863 58.4111 100.837L58.5656 100.362L58.7202 99.8864C58.804 99.9137 58.8804 99.939 58.9617 99.9649L58.8097 100.441ZM58.5656 100.362L58.4039 100.835C58.2528 100.783 58.1202 100.741 57.9571 100.686L58.1168 100.212L58.2764 99.7384C58.4141 99.7848 58.5821 99.8392 58.7273 99.8888L58.5656 100.362ZM58.1168 100.212L57.9594 100.687C55.1251 99.7467 52.3377 98.6957 49.6346 97.529L49.8327 97.0699L50.0309 96.6108C52.7052 97.7651 55.4652 98.806 58.2742 99.7376L58.1168 100.212ZM49.8327 97.0699L49.6355 97.5294C49.4749 97.4605 49.3163 97.3914 49.1552 97.3201L49.3577 96.8629L49.5602 96.4058C49.7173 96.4754 49.8724 96.5428 50.0299 96.6104L49.8327 97.0699ZM49.3577 96.8629L49.1582 97.3214C48.4155 96.9981 47.6788 96.6657 46.9502 96.322L47.1636 95.8698L47.377 95.4176C48.0952 95.7565 48.8227 96.0847 49.5573 96.4045L49.3577 96.8629ZM47.1636 95.8698L46.951 96.3223C44.7357 95.2815 42.5875 94.1606 40.5173 92.9569L40.7686 92.5247L41.02 92.0924C43.0635 93.2806 45.1858 94.3881 47.3762 95.4173L47.1636 95.8698ZM40.7686 92.5247L40.5178 92.9572C39.1644 92.1725 37.8475 91.352 36.5695 90.4909L36.8488 90.0762L37.1282 89.6616C38.3864 90.5093 39.6841 91.3179 41.0194 92.0921L40.7686 92.5247ZM36.8488 90.0762L36.5719 90.4925C36.3352 90.3351 36.0974 90.1751 35.8612 90.0122L36.1451 89.6006L36.4289 89.189C36.659 89.3476 36.8918 89.5043 37.1258 89.66L36.8488 90.0762ZM36.1451 89.6006L35.8606 90.0118C35.082 89.4731 34.3177 88.9227 33.568 88.3537L33.8703 87.9555L34.1726 87.5572C34.909 88.1161 35.6612 88.6579 36.4295 89.1894L36.1451 89.6006ZM33.8703 87.9555L33.5698 88.355C32.7519 87.7398 31.9541 87.1045 31.1784 86.4538L31.4997 86.0707L31.8211 85.6877C32.5836 86.3274 33.3677 86.9516 34.1709 87.5559L33.8703 87.9555ZM31.4997 86.0707L31.1785 86.4539C24.5299 80.8807 19.437 74.0659 16.871 65.907L17.348 65.757L17.8249 65.6069C20.3227 73.5488 25.2874 80.2109 31.8209 85.6876L31.4997 86.0707ZM17.348 65.757L16.8707 65.906C16.6461 65.187 16.4365 64.4558 16.2486 63.7075L16.7335 63.5857L17.2185 63.464C17.401 64.1911 17.6053 64.9039 17.8252 65.6079L17.348 65.757ZM16.7335 63.5857L16.2489 63.7087C14.9683 58.6635 14.5421 53.0615 15.0437 47.534L15.5417 47.5791L16.0397 47.6243C15.5477 53.0449 15.9669 58.5328 17.2182 63.4627L16.7335 63.5857ZM15.5417 47.5791L15.0437 47.5342C15.9095 37.9381 19.5765 28.5023 26.4966 22.6491L26.8195 23.0308L27.1424 23.4126C20.4882 29.0408 16.8908 38.1902 16.0397 47.6241L15.5417 47.5791ZM26.8195 23.0308L26.4965 22.6492C32.3028 17.7352 39.9804 15.6981 47.1161 15.0175L47.1636 15.5153L47.2111 16.013C40.1711 16.6845 32.7273 18.686 27.1425 23.4125L26.8195 23.0308ZM47.1636 15.5153L47.0898 15.0208C47.1526 15.0114 47.2473 15.0053 47.2595 15.0042L47.3052 15.5021L47.351 16C47.2673 16.0077 47.2661 16.0055 47.2374 16.0098L47.1636 15.5153ZM47.3052 15.5021L47.2588 15.0042C56.5152 14.1413 64.9308 15.5425 67.3633 15.9925L67.2724 16.4842L67.1814 16.9758C64.7812 16.5318 56.4718 15.1497 47.3516 15.9999L47.3052 15.5021ZM67.2724 16.4842L67.3636 15.9926C75.876 17.5727 83.347 20.9021 95.8963 19.4754L95.9528 19.9722L96.0093 20.469C83.262 21.9182 75.4896 18.5181 67.1811 16.9758L67.2724 16.4842ZM95.9528 19.9722L95.8957 19.4755C96.8884 19.3614 100.346 18.9431 106.67 17.1871L106.804 17.6689L106.937 18.1506C100.558 19.9223 97.0479 20.3496 96.0099 20.4689L95.9528 19.9722ZM106.804 17.6689L106.672 17.1865C106.808 17.1493 106.941 17.1113 107.088 17.0705L107.222 17.5522L107.356 18.0339C107.219 18.0719 107.073 18.1135 106.935 18.1513L106.804 17.6689ZM107.222 17.5522L107.087 17.0708C107.696 16.8997 108.29 16.7265 108.87 16.5532L109.013 17.0323L109.156 17.5113C108.572 17.6859 107.972 17.8607 107.357 18.0335L107.222 17.5522ZM109.013 17.0323L108.87 16.553C117.838 13.8832 123.358 11.0824 127.973 8.60247C132.589 6.12197 136.357 3.92778 141.755 2.54105L141.879 3.02532L142.003 3.5096C136.747 4.85999 133.093 6.9862 128.446 9.48335C123.798 11.9811 118.212 14.8152 109.156 17.5115L109.013 17.0323ZM141.879 3.02532L141.753 2.54134C142.503 2.34692 143.28 2.17308 144.074 2.01524L144.171 2.50564L144.269 2.99605C143.49 3.15089 142.732 3.32057 142.005 3.50931L141.879 3.02532ZM144.171 2.50564L144.075 2.01492C145.26 1.78345 146.493 1.58982 147.764 1.44514L147.821 1.94193L147.877 2.43872C146.634 2.5803 145.427 2.7698 144.267 2.99636L144.171 2.50564ZM147.821 1.94193L147.764 1.44514C158.227 0.253258 171.212 2.24609 180.039 10.5039L179.698 10.869L179.356 11.2341C170.821 3.24966 158.175 1.26561 147.877 2.43871L147.821 1.94193ZM179.698 10.869L180.039 10.5039C188.691 18.598 190.753 30.2749 190.913 38.9049L190.413 38.9141L189.913 38.9234C189.755 30.3907 187.712 19.0518 179.356 11.2341L179.698 10.869ZM190.413 38.9141L190.913 38.9047C190.994 43.2087 190.601 46.7844 190.302 48.8253L189.808 48.7528L189.313 48.6803C189.606 46.6783 189.993 43.1591 189.913 38.9236L190.413 38.9141Z" fill="black" mask="url(#path-1-outside-1_150_2880)"/>
<path d="M163.485 86.0702C150.736 94.9865 134.888 101.251 119.159 104.326C113.147 105.503 107.153 106.212 101.356 106.426C96.8539 106.593 92.0456 106.476 87.0904 106.057C80.541 105.504 73.7342 104.425 67.0387 102.779C64.1847 102.077 61.3515 101.272 58.5664 100.361C58.417 100.312 58.2664 100.263 58.1169 100.213C55.2944 99.2761 52.522 98.2297 49.8327 97.0699C49.6738 97.0016 49.5163 96.9331 49.3585 96.8635C48.6199 96.5416 47.8878 96.21 47.1631 95.8691C41.3989 93.1615 36.0725 89.908 31.499 86.0702H163.485Z" fill="#E1E8EC"/>
<path d="M189.809 48.7526C189.66 49.7662 189.535 50.396 189.504 50.5446C183.609 78.6419 151.136 98.0742 119.159 104.326C119.159 104.216 119.155 104.104 119.145 103.993C119.075 103.239 118.727 102.543 118.56 101.804C117.901 98.9106 120.115 96.103 122.626 94.5598C125.136 93.0155 128.069 92.1968 130.388 90.3731C129.186 89.4458 130.136 87.5097 131.221 86.4457C133.795 83.9211 136.908 81.9604 140.285 80.7369C139.741 76.437 144.409 72.387 148.531 73.5797C148.584 71.4952 150.284 69.577 152.329 69.2963C154.374 69.0155 156.518 70.4039 157.121 72.3989C157.295 70.8936 157.717 69.4189 158.36 68.0503C158.924 66.852 160.689 66.944 161.104 68.2025C161.106 68.212 161.108 68.2201 161.112 68.2287C162.479 65.448 166.777 64.8028 168.885 67.0618C168.149 64.2941 171.448 61.4064 174.054 62.5364C172.805 60.6819 172.466 58.0912 173.645 56.1897C174.825 54.2892 177.69 53.5317 179.405 54.9555C178.186 52.8556 179.721 49.7226 182.113 49.4288C183.334 49.2789 184.545 49.7543 185.774 49.7862C186.39 49.8014 187.061 49.6292 187.58 49.2965C188.264 48.86 189.055 48.6762 189.809 48.7526Z" fill="#E1E8EC"/>
<path d="M147.764 12.9779C147.764 18.4306 140.098 22.8639 130.573 22.9641C130.461 22.9666 130.352 22.9666 130.241 22.9666C129.56 22.9666 128.89 22.943 128.231 22.9005C125.434 25.6409 121.443 26.5279 117.87 25.4179C116.899 25.116 115.959 24.6676 115.081 24.0674C115.03 24.033 114.981 23.9975 114.931 23.9621C114.942 24.0341 114.953 24.1072 114.961 24.1803V24.1816C114.988 24.4034 115.001 24.6264 115.001 24.8504C115.001 27.4164 113.303 29.7559 110.514 31.5241C110.253 31.6906 109.982 31.8496 109.704 32.0044C107.557 33.197 104.876 34.0783 101.885 34.5184L101.884 34.5193C101.567 34.5653 101.251 34.6067 100.933 34.6422C100.671 34.6728 100.407 34.6988 100.143 34.7223H100.142C97.713 34.9335 95.2664 34.8558 92.85 34.4865C92.85 34.4852 92.85 34.4852 92.8487 34.4852C92.7798 34.4746 92.7121 34.464 92.6432 34.4522C89.6597 33.9651 86.9995 33.0389 84.8971 31.8027C82.7457 30.5391 81.1758 28.9512 80.4346 27.1804C80.1485 27.1909 79.8624 27.1993 79.5731 27.1993C79.3175 27.1993 79.063 27.1947 78.8109 27.1852C77.7332 27.1473 76.6911 27.0282 75.6988 26.8373C75.4945 26.7983 75.2927 26.7558 75.0931 26.7098H75.0918C73.2101 26.2839 71.5291 25.5973 70.1634 24.7196C69.8039 25.0288 69.4291 25.3166 69.0393 25.5843C68.5247 25.9395 67.9678 26.272 67.3749 26.5812C67.1786 26.6838 66.9779 26.7842 66.7725 26.8796C66.5193 27.0011 66.2589 27.1167 65.9939 27.2277C65.9926 27.2277 65.9926 27.2277 65.9915 27.2277C65.5444 27.4177 65.0834 27.5921 64.6047 27.7551H64.6036C62.1312 28.5936 59.2667 29.0739 56.2143 29.0739H56.1139C51.1598 29.0563 47.1631 24.9695 47.1631 19.963V15.5155C47.2097 15.5096 47.2574 15.5061 47.3043 15.5025C56.4932 14.6459 64.8557 16.037 67.2721 16.4851C75.6825 18.0448 83.3037 21.4093 95.9525 19.9711C96.9683 19.8557 100.451 19.4321 106.804 17.6684C106.942 17.6306 107.08 17.5916 107.222 17.5517C107.833 17.3795 108.431 17.2058 109.013 17.0325C127.036 11.6659 131.225 5.76292 141.878 3.02469C142.618 2.83487 143.384 2.66134 144.17 2.50566C144.238 3.8445 144.03 5.19765 143.544 6.47659C145.936 8.06559 147.467 10.0864 147.725 12.3078C147.752 12.5296 147.764 12.7537 147.764 12.9779Z" fill="#E1E8EC"/>
<path d="M120.871 17.0326C120.871 17.0326 120.868 17.0445 120.862 17.0683C120.81 17.2449 120.568 18.0768 120.116 19.4192C119.797 20.3641 119.375 21.5629 118.84 22.9642C118.55 23.7253 118.227 24.5451 117.87 25.418C116.044 29.8868 113.331 35.7123 109.591 41.802C109.463 42.0119 109.332 42.223 109.2 42.4342C108.069 44.2463 106.847 46.0773 105.53 47.901C105.53 47.9034 105.529 47.9047 105.528 47.9058C105.444 48.0225 105.359 48.1395 105.273 48.2549C105.173 48.3929 105.072 48.5321 104.969 48.6702C104.841 48.8448 104.711 49.0194 104.581 49.1927C104.58 49.1927 104.58 49.194 104.579 49.1951C101.881 52.7968 98.8103 56.3383 95.335 59.5956C86.9446 67.4595 80.4065 75.9545 75.7222 83.526C75.7211 83.5273 75.7211 83.5273 75.7211 83.5284C75.5903 83.7385 75.4618 83.9483 75.3345 84.1562C73.9187 86.48 72.6789 88.712 71.6156 90.805C71.6156 90.8061 71.6156 90.8072 71.6156 90.8072C71.5444 90.9453 71.4755 91.0823 71.4078 91.2179C71.4078 91.2179 71.4078 91.2179 71.4067 91.219C69.0021 96.0206 67.5464 100.063 67.0387 102.779C64.1846 102.077 61.3514 101.272 58.5664 100.362C58.4169 100.312 58.2664 100.264 58.1169 100.213C55.2944 99.2765 52.522 98.2301 49.8326 97.0703C49.6738 97.002 49.5163 96.9335 49.3585 96.8639C48.6199 96.542 47.8878 96.2104 47.1631 95.8695V76.7593C53.0369 68.2203 61.6691 58.5456 74.3109 49.0584C75.9311 47.8433 76.629 45.7351 76.0562 43.779C76.0536 43.7698 76.0501 43.759 76.0479 43.7497C75.6836 42.51 75.233 41.054 74.7323 39.6207C74.4497 38.8103 74.1043 38.0279 73.7004 37.279C73.7004 37.279 73.6993 37.2777 73.6993 37.2766C73.6409 37.1645 73.579 37.0535 73.5158 36.9439C73.4542 36.8342 73.3912 36.7243 73.3256 36.616C73.3256 36.6147 73.3256 36.6147 73.3245 36.6136C72.4011 35.0704 71.2269 33.6866 69.8447 32.5222C68.3495 31.2622 66.4572 29.5941 64.613 27.7634C64.6106 27.7609 64.6071 27.7574 64.6047 27.7552H64.6036C63.8926 27.0508 63.1889 26.323 62.5176 25.5844C61.7929 24.7988 61.1052 23.9787 60.4561 23.1283C60.2228 22.8238 59.9951 22.5148 59.7722 22.2021C58.7614 20.756 58.0271 19.3567 57.7657 18.1134C57.7657 18.1134 60.0382 18.519 62.4452 17.0326L64.677 19.8156L66.4853 22.0711L67.4505 23.2745C67.6747 23.5542 68.0484 23.6804 68.3833 23.5588C68.6927 23.4467 68.8982 23.1697 68.9284 22.857L69.1036 21.0839L69.1655 20.4539L69.2635 19.4652C69.2635 19.4652 69.7409 19.8946 70.662 20.2745C71.396 20.5777 72.4116 20.8501 73.6923 20.8481C73.8054 20.8481 73.9211 20.8457 74.039 20.8408C74.0483 20.8408 74.0577 20.8395 74.0671 20.8395C74.0682 20.8395 74.0682 20.8395 74.0693 20.8395C74.6846 20.8135 75.3568 20.7239 76.083 20.5458C76.4505 21.839 76.8883 23.1118 77.3925 24.3564C77.7977 25.3473 78.2797 26.3653 78.8109 27.1853C79.1726 27.7469 79.5591 28.2152 79.9594 28.5184C80.5712 28.982 81.4467 30.1099 82.384 31.4841C82.384 31.4852 82.3851 31.4853 82.3851 31.4853C82.4995 31.6528 82.6139 31.8239 82.7294 31.9986C83.2571 32.7913 83.7964 33.6443 84.3123 34.4866C85.1458 35.8444 85.9186 37.1716 86.4895 38.1684C86.8956 38.8786 87.7944 39.1217 88.4971 38.7112C88.6125 38.6428 88.7189 38.5602 88.8121 38.4635C89.1403 38.1237 89.5198 37.7307 89.9399 37.2931C89.9399 37.2918 89.941 37.2907 89.9423 37.2896L90.2526 36.9663L90.2539 36.9652C90.945 36.2443 91.7316 35.4185 92.5803 34.5194C92.6014 34.4972 92.6223 34.4747 92.6432 34.4523C94.2332 32.7666 96.0342 30.8308 97.8143 28.8604C98.1996 28.4348 98.5837 28.0063 98.9654 27.5793C102.037 24.1357 104.892 20.7309 106.305 18.5133C106.305 18.5119 106.306 18.5119 106.306 18.5108C106.398 18.3695 106.482 18.2314 106.561 18.0991C106.651 17.9493 106.731 17.8053 106.804 17.6686C106.942 17.6307 107.08 17.5917 107.222 17.5519C107.833 17.3797 108.431 17.2059 109.013 17.0326H120.871Z" fill="#E1E8EC"/>
<path d="M98.7255 50.3941C96.4429 51.0034 94.0823 51.6328 91.8159 52.4418C86.0913 54.4838 82.0489 57.4384 79.8007 61.224C78.4524 63.4947 77.7558 66.0363 77.2037 68.4444C76.0234 73.5915 75.3663 78.8471 75.2432 84.1291C75.2425 84.1569 75.2643 84.1793 75.2916 84.18C75.3088 84.1802 75.3249 84.1714 75.334 84.1566C75.4613 83.9479 75.5901 83.7385 75.7199 83.5284C75.7225 83.52 75.7247 83.5121 75.7273 83.504C75.8859 78.4679 76.5326 73.4594 77.6582 68.5508C78.2017 66.1803 78.8856 63.6814 80.201 61.4669C82.3914 57.778 86.3513 54.8911 91.9708 52.8868C94.2198 52.0846 96.5708 51.4571 98.8444 50.8506C100.729 50.3477 102.662 49.8309 104.556 49.2105C104.564 49.2046 104.572 49.1991 104.58 49.1929C104.711 49.019 104.84 48.8446 104.969 48.6702C104.985 48.6486 104.98 48.6175 104.959 48.6012C104.946 48.5915 104.929 48.5889 104.914 48.5942C102.872 49.2859 100.771 49.8489 98.7255 50.3941Z" fill="#E1E8EC"/>
<path d="M71.6159 90.8048C71.6159 90.8059 71.6159 90.807 71.6159 90.807C71.6146 90.8116 71.6135 90.8153 71.6113 90.8186C71.5458 90.9472 71.4806 91.0772 71.4163 91.2058C71.4139 91.2093 71.4118 91.2139 71.4081 91.2177C71.4081 91.2177 71.4081 91.2177 71.407 91.2188C71.4046 91.2212 71.4024 91.2234 71.3987 91.2258C71.3754 91.2399 71.3462 91.2328 71.3311 91.2093C71.0461 90.7517 70.7439 90.3042 70.4241 89.868C69.8497 89.0823 69.056 88.0947 68.0101 87.426C66.5766 86.5093 64.7159 86.3005 63.0957 86.8173C62.5074 87.0096 62.0463 87.4768 61.8561 88.0714C60.5941 91.9538 59.2916 96.1086 58.5667 100.361C58.4172 100.312 58.2667 100.264 58.1172 100.213C58.9075 95.6107 60.3643 91.1375 61.7149 86.9941L61.7603 86.914L61.8221 86.8633C63.7774 85.7485 66.3642 85.8145 68.2598 87.0285C69.3699 87.7387 70.1999 88.7696 70.7999 89.5884C71.0812 89.9731 71.3508 90.3659 71.6087 90.768C71.6159 90.7788 71.6181 90.7929 71.6159 90.8048Z" fill="#E1E8EC"/>
<path d="M115.916 18.4614C115.257 20.7984 114.459 23.0881 113.528 25.3203H113.528C112.644 27.4451 111.636 29.5165 110.514 31.5243C109.711 32.9625 108.849 34.3663 107.929 35.7359C107.79 35.9414 107.651 36.1464 107.511 36.353C106.511 37.8228 105.476 39.3435 104.982 41.0495C104.706 42.0274 104.598 43.0467 104.661 44.0623C104.661 44.0682 104.663 44.0742 104.665 44.0801C104.676 44.1061 104.705 44.1167 104.731 44.1061C106.361 43.3757 107.959 42.5843 109.527 41.7323C109.542 41.7242 109.561 41.7253 109.576 41.7336C109.599 41.7491 109.606 41.7783 109.591 41.8021C109.463 42.012 109.332 42.2231 109.2 42.4343C109.194 42.4403 109.189 42.4462 109.182 42.4522C107.726 43.2271 106.246 43.9491 104.74 44.6168C104.72 44.6262 104.708 44.6465 104.711 44.6687C104.84 45.7647 105.117 46.8384 105.533 47.8588C105.538 47.8729 105.537 47.8894 105.53 47.9011C105.53 47.9035 105.529 47.9048 105.528 47.9059C105.444 48.0226 105.359 48.1396 105.273 48.255C105.269 48.2622 105.262 48.2682 105.254 48.2717C105.229 48.2823 105.199 48.2704 105.188 48.2455C104.732 47.1744 104.423 46.0465 104.268 44.8905C104.268 44.8858 104.267 44.881 104.265 44.8777C104.254 44.8528 104.226 44.8411 104.202 44.8515C99.3808 46.9481 94.3416 48.4862 89.1787 49.4372C88.9288 49.4822 88.6791 49.5282 88.4281 49.5716C86.2057 49.9681 83.9072 50.3773 82.0349 51.6115C79.315 53.4044 77.9632 56.5758 76.6559 59.6428C76.1282 60.8814 75.5819 62.1628 74.9505 63.346C72.9181 67.1564 69.7992 70.2368 66.7817 73.2155C64.3736 75.5939 61.8838 78.0536 59.9599 80.8696C58.6025 82.8584 57.5017 85.0669 56.4371 87.1997C55.3026 89.4742 54.1306 91.8267 52.6376 93.936C51.8789 95.0084 50.9274 96.096 49.8325 97.0704C49.6737 97.0021 49.5161 96.9336 49.3584 96.864C50.4945 95.8791 51.4782 94.7618 52.2569 93.6623C53.729 91.5811 54.894 89.2454 56.0192 86.9875C57.0908 84.8392 58.1996 82.6177 59.576 80.6018C61.5241 77.7479 64.0315 75.2718 66.4549 72.8781C69.4467 69.9241 72.54 66.8688 74.5396 63.1218C75.1605 61.9574 75.7022 60.6859 76.2264 59.4565C77.5617 56.3243 78.9426 53.086 81.7791 51.2163C83.7322 49.9292 86.0784 49.5117 88.3464 49.1069C88.5974 49.0631 88.8471 49.0184 89.0946 48.9724C94.281 48.0178 99.3425 46.4656 104.18 44.3479C104.198 44.3395 104.21 44.3208 104.209 44.2997C104.114 43.1612 104.225 42.0144 104.535 40.916C105.05 39.1383 106.106 37.5857 107.126 36.0865C107.266 35.8811 107.405 35.6756 107.543 35.4706C108.303 34.3392 109.024 33.1831 109.703 32.0046C110.602 30.4484 111.429 28.8524 112.183 27.222C112.405 26.7417 112.621 26.2595 112.828 25.7733H112.829C113.868 23.3585 114.749 20.8729 115.466 18.3317C115.473 18.3057 115.5 18.2903 115.527 18.2985L115.882 18.4C115.908 18.4072 115.923 18.4354 115.916 18.4614Z" fill="#E1E8EC"/>
<path d="M91.4774 37.5724C92.1483 37.634 92.8573 37.6825 93.5811 37.6825C94.9106 37.6825 96.2892 37.5193 97.5682 36.978C99.2492 36.267 100.631 34.9451 101.851 33.7787L104.938 30.8262C105.699 30.098 106.562 29.2724 107.004 28.1981C107.421 27.1836 107.419 26.048 107.416 25.0461C107.411 22.8451 107.403 20.3619 106.649 18.1094C106.64 18.0835 106.613 18.0691 106.587 18.0777C106.576 18.0815 106.566 18.0892 106.56 18.0993C106.482 18.2314 106.397 18.3686 106.306 18.5109C106.299 18.5232 106.297 18.538 106.301 18.5521C106.937 20.6422 106.944 22.8786 106.949 25.0476C106.951 26.0046 106.954 27.0898 106.572 28.0173C106.169 28.999 105.344 29.7877 104.616 30.4836L101.529 33.4363C100.28 34.6302 98.9897 35.8651 97.3876 36.5431C95.5063 37.3392 93.3654 37.2725 91.5194 37.1027C91.1253 37.0663 90.7115 37.0219 90.2958 36.9521C90.2797 36.9494 90.2635 36.9547 90.2522 36.9666L89.9422 37.2896C89.9236 37.3094 89.9243 37.3409 89.9439 37.3601C89.9509 37.3667 89.9596 37.3711 89.969 37.3729C90.4823 37.4717 90.9941 37.5279 91.4774 37.5724Z" fill="#E1E8EC"/>
<path d="M47.1631 83.9108C47.1633 83.9386 47.1855 83.961 47.2132 83.9608C47.2204 83.9608 47.2276 83.9591 47.2341 83.9557C49.6993 82.7622 51.7858 80.8971 53.2593 78.5702C53.7572 77.7713 54.1823 76.9176 54.5935 76.0921C55.0621 75.1505 55.5471 74.1763 56.1365 73.2952C57.8487 70.736 60.5174 68.8584 62.8716 67.2013L68.5554 63.202C70.1826 62.0578 72.2072 60.6324 73.1589 58.5341C74.3235 55.965 73.5923 53.0656 72.1484 50.7823C72.1336 50.759 72.1026 50.7523 72.0797 50.7678C72.0719 50.7726 72.0658 50.7796 72.0614 50.7907C71.9693 50.8616 71.8954 50.9184 71.8032 50.9893C71.7692 50.9992 71.7573 51.0368 71.7743 51.0635C73.1332 53.2224 73.8209 55.9412 72.7343 58.3377C71.8355 60.3189 69.8693 61.7028 68.2887 62.8149L62.6049 66.8142C60.2169 68.4944 57.5103 70.3989 55.7493 73.0312C55.1434 73.9371 54.6514 74.925 54.176 75.88C53.7698 76.6959 53.35 77.5392 52.8641 78.319C51.4705 80.521 49.5086 82.2965 47.1899 83.4541C47.1733 83.4625 47.1631 83.4794 47.1631 83.4979V83.9108Z" fill="#E1E8EC"/>
<path d="M76.724 28.9298C78.361 30.5458 80.537 31.341 82.6738 32.0734C82.7 32.0818 82.7279 32.0674 82.7362 32.0412C82.7407 32.0265 82.7383 32.0106 82.7301 31.9976C82.6144 31.8239 82.4993 31.653 82.3849 31.4852C82.3766 31.4788 82.369 31.4731 82.361 31.4667C80.3653 30.7726 78.5046 30.0284 77.0506 28.5922C75.0478 26.6143 74.334 23.8556 74.1174 20.8846C74.1153 20.858 74.0928 20.8379 74.0664 20.839C73.9412 20.8443 73.8187 20.8465 73.6982 20.8468C73.6712 20.8468 73.6492 20.869 73.6494 20.8963C73.6494 20.8974 73.6494 20.8987 73.6494 20.8998C73.8706 23.9754 74.6133 26.8449 76.724 28.9298Z" fill="#E1E8EC"/>
<path d="M64.6497 27.7768C65.9621 27.6967 67.2737 27.6368 68.585 27.5969C68.5928 27.5984 68.6002 27.6002 68.6079 27.6017C70.4856 28.5231 71.8823 29.8765 72.5751 31.4668C73.1689 32.8292 73.2608 34.3845 73.3007 35.7352C73.309 36.0208 73.3153 36.3068 73.3192 36.5929C73.3214 36.601 73.3236 36.6083 73.3258 36.616C73.4554 36.8327 73.5798 37.0527 73.699 37.276C73.7119 37.3 73.7417 37.309 73.7655 37.2962C73.7814 37.2874 73.7914 37.2707 73.7914 37.2524C73.7903 36.7411 73.7825 36.2304 73.7679 35.7204C73.7269 34.3252 73.6306 32.7158 73.0031 31.2756C72.3795 29.8445 71.2286 28.5977 69.6936 27.6601C69.6703 27.6462 69.6627 27.6161 69.6764 27.5925C69.6849 27.578 69.7001 27.5687 69.7169 27.5683C70.0355 27.5619 70.3538 27.5566 70.6719 27.5526C71.4323 27.5432 72.1076 27.561 72.671 27.8682C73.258 28.1888 73.6591 28.8025 74.0193 29.403C75.7526 32.2934 77.1011 35.4018 78.0304 38.6483C78.382 39.8777 78.65 41.2735 77.972 42.3065C77.5491 42.9502 76.8107 43.3435 76.1592 43.6903C76.1223 43.7099 76.0853 43.7295 76.0485 43.7493C76.0513 43.7588 76.0544 43.7687 76.057 43.7781C76.0714 43.8272 76.0849 43.8766 76.0975 43.9254L76.4324 44.0783C77.0885 43.7286 77.8857 43.291 78.3609 42.5681C79.1453 41.3748 78.861 39.851 78.4794 38.5179C77.5388 35.2316 76.1738 32.0849 74.4191 29.1593C74.0256 28.5028 73.5835 27.8305 72.8935 27.454C72.2322 27.0926 71.4927 27.0713 70.6671 27.0812C70.015 27.0891 69.3622 27.1023 68.7087 27.1206C68.7013 27.1191 68.6942 27.1175 68.687 27.116C68.5072 27.0305 68.3251 26.9473 68.1372 26.8696C66.3641 26.135 64.47 25.8115 62.6068 25.5497L62.5635 25.6331C62.6957 25.778 62.8293 25.9227 62.9639 26.0669C62.9738 26.072 62.9827 26.0768 62.9925 26.0819C64.4643 26.2981 65.9449 26.5703 67.3487 27.0708C67.3742 27.0803 67.3873 27.1089 67.3779 27.1347C67.3711 27.1534 67.3537 27.1664 67.3339 27.1673C66.3203 27.2071 65.3067 27.26 64.2924 27.3254C64.2652 27.3272 64.2445 27.3514 64.2464 27.3791C64.2473 27.391 64.2523 27.4022 64.2608 27.4108C64.3778 27.5289 64.4953 27.6462 64.6131 27.7627C64.6227 27.7724 64.636 27.7775 64.6497 27.7768Z" fill="#E1E8EC"/>
<path d="M150.315 7.07905C150.315 8.99615 149.367 10.7868 147.725 12.3076C144.641 15.1636 139.107 17.0679 132.792 17.0679H132.781C132.296 17.0679 131.814 17.0547 131.337 17.0323C131.151 17.0241 130.966 17.0133 130.782 17.0016C128.768 18.9753 126.138 19.9852 123.494 19.9852C122.355 19.9852 121.214 19.7976 120.116 19.4188C119.197 19.1028 118.31 18.651 117.483 18.0635C117.528 18.3572 117.552 18.6545 117.553 18.9518C117.553 20.8215 116.651 22.571 115.082 24.0671C115.042 24.1048 115.003 24.1424 114.963 24.1801H114.961V24.1814C114.529 24.5802 114.052 24.9611 113.529 25.3198H113.528C113.303 25.4755 113.07 25.6266 112.83 25.7728H112.829C111.67 26.4783 110.334 27.0881 108.86 27.5789C108.274 27.7749 107.667 27.9517 107.039 28.1074C106.852 28.1548 106.663 28.1994 106.473 28.2419H106.472C104.478 28.6916 102.304 28.9393 100.028 28.9393C99.2787 28.9393 98.5399 28.912 97.8148 28.8601C92.5619 28.4826 88.034 26.7802 85.2921 24.3584L85.2908 24.3571V24.356C84.2391 23.4263 83.4501 22.3896 82.9854 21.2815C82.6995 21.2923 82.4147 21.3005 82.1252 21.3005C80.1537 21.3088 78.1912 21.0243 76.3026 20.4536C75.0397 20.0724 73.8339 19.5239 72.7144 18.8208C72.2965 19.1792 71.8577 19.5109 71.3988 19.8152C71.162 19.9733 70.9155 20.1268 70.6624 20.2741C70.1721 20.5632 69.6516 20.8334 69.104 21.0836C68.288 21.4586 67.4113 21.7889 66.4857 22.0707C66.3386 22.1157 66.1905 22.1595 66.041 22.2018C64.2153 22.7067 62.3441 23.017 60.4565 23.1279C59.894 23.1621 59.3301 23.1775 58.7651 23.1751C57.4425 23.1751 56.1563 23.0854 54.9224 22.9154C51.0072 22.3764 47.9782 19.3197 47.3047 15.5023C56.4936 14.6457 64.8561 16.0367 67.2725 16.4848C75.6829 18.0445 83.3041 21.409 95.9529 19.9709C96.9687 19.8555 100.452 19.4318 106.804 17.6682C106.942 17.6303 107.081 17.5914 107.222 17.5515C107.834 17.3793 108.431 17.2056 109.014 17.0323C127.036 11.6657 131.225 5.76268 141.878 3.02445C142.618 2.83463 143.384 2.6611 144.171 2.50542C145.344 2.27531 146.565 2.08527 147.822 1.94258C149.405 3.44304 150.315 5.19983 150.315 7.07905Z" fill="#E1E8EC"/>
<path d="M87.0899 106.057C58.6661 103.658 25.3981 91.3488 17.3472 65.7559C17.1243 65.0457 16.9188 64.3225 16.7321 63.5864C15.4668 58.5986 15.0454 53.053 15.5415 47.58C16.1462 47.599 16.7449 47.802 17.2724 48.1876C17.8037 48.5747 18.5005 48.7564 19.1484 48.7079C20.4418 48.6099 21.7363 47.9601 23.0133 48.0887C25.5125 48.3386 26.9786 52.1574 25.599 54.8245C27.4689 52.9737 30.4433 53.7772 31.5941 56.0821C32.7439 58.3874 32.2676 61.6222 30.867 63.9863C33.659 62.4576 36.9894 65.8858 36.0872 69.3586C38.4077 66.4519 42.8948 67.0476 44.2011 70.4372C44.2045 70.4264 44.208 70.4145 44.2104 70.4039C44.7053 68.8195 46.5636 68.6216 47.1005 70.0831C47.7123 71.7522 48.0868 73.5645 48.1991 75.4248C48.9251 72.9178 51.2445 71.0907 53.3808 71.3418C55.5168 71.5932 57.2128 73.8935 57.171 76.4807C61.5588 74.8007 66.2747 79.6093 65.5021 84.9757C68.9933 86.3337 72.1718 88.6211 74.7586 91.6342C75.8489 92.9048 76.756 95.2629 75.4497 96.4734C77.8005 98.6274 80.8448 99.504 83.4107 101.302C84.976 102.398 86.4035 104.085 87.0899 106.057Z" fill="#E1E8EC"/>
<mask id="path-16-outside-2_150_2880" maskUnits="userSpaceOnUse" x="-0.5" y="17.4431" width="45" height="21" fill="black">
<rect fill="white" x="-0.5" y="17.4431" width="45" height="21"/>
<path d="M44.2996 37.4431H1.40192C0.827941 36.4403 0.5 35.2765 0.5 34.0346C0.5 30.2671 3.52274 27.2122 7.25141 27.2122C8.37745 27.2122 9.43791 27.4921 10.3709 27.9847C10.7871 22.5745 15.2629 18.3156 20.7225 18.3156C26.4575 18.3156 31.1063 23.0138 31.1063 28.8096C31.1063 30.3204 30.7902 31.7559 30.2217 33.054C34.9089 34.5565 39.5058 36.3952 44.2996 37.4431Z"/>
</mask>
<path d="M44.2996 37.4431H1.40192C0.827941 36.4403 0.5 35.2765 0.5 34.0346C0.5 30.2671 3.52274 27.2122 7.25141 27.2122C8.37745 27.2122 9.43791 27.4921 10.3709 27.9847C10.7871 22.5745 15.2629 18.3156 20.7225 18.3156C26.4575 18.3156 31.1063 23.0138 31.1063 28.8096C31.1063 30.3204 30.7902 31.7559 30.2217 33.054C34.9089 34.5565 39.5058 36.3952 44.2996 37.4431Z" fill="#E1E8EC"/>
<path d="M1.40192 37.4431V37.9431H1.112L0.967975 37.6915L1.40192 37.4431ZM10.3709 27.9847L10.8694 28.023L10.811 28.7825L10.1375 28.4269L10.3709 27.9847ZM30.2217 33.054L30.0691 33.5301L29.5414 33.361L29.7637 32.8534L30.2217 33.054ZM44.2996 37.4431V37.9431H1.40192V37.4431V36.9431H44.2996V37.4431ZM1.40192 37.4431L0.967975 37.6915C0.351687 36.6148 0 35.3656 0 34.0346H0.5H1C1 35.1875 1.30419 36.2658 1.83586 37.1947L1.40192 37.4431ZM0.5 34.0346H0C0 29.9959 3.24167 26.7122 7.25141 26.7122V27.2122V27.7122C3.80382 27.7122 1 30.5383 1 34.0346H0.5ZM7.25141 27.2122V26.7122C8.46137 26.7122 9.6017 27.0132 10.6043 27.5425L10.3709 27.9847L10.1375 28.4269C9.27412 27.971 8.29353 27.7122 7.25141 27.7122V27.2122ZM10.3709 27.9847L9.87237 27.9464C10.3081 22.2821 14.9952 17.8156 20.7225 17.8156V18.3156V18.8156C15.5306 18.8156 11.2661 22.8669 10.8694 28.023L10.3709 27.9847ZM20.7225 18.3156V17.8156C26.7386 17.8156 31.6063 22.7427 31.6063 28.8096H31.1063H30.6063C30.6063 23.285 26.1764 18.8156 20.7225 18.8156V18.3156ZM31.1063 28.8096H31.6063C31.6063 30.3908 31.2753 31.8945 30.6797 33.2546L30.2217 33.054L29.7637 32.8534C30.305 31.6174 30.6063 30.25 30.6063 28.8096H31.1063ZM30.2217 33.054L30.3743 32.5779C35.1074 34.095 39.6426 35.9133 44.4063 36.9547L44.2996 37.4431L44.1928 37.9316C39.369 36.8771 34.7103 35.0179 30.0691 33.5301L30.2217 33.054Z" fill="black" mask="url(#path-16-outside-2_150_2880)"/>
<mask id="path-18-outside-3_150_2880" maskUnits="userSpaceOnUse" x="139.74" y="4.72046" width="62" height="28" fill="black">
<rect fill="white" x="139.74" y="4.72046" width="62" height="28"/>
<path d="M140.74 31.7205H199.269C200.052 30.3526 200.5 28.7647 200.5 27.0698C200.5 21.9298 196.376 17.7615 191.288 17.7615C189.752 17.7615 188.305 18.1434 187.032 18.8156C186.464 11.4342 180.357 5.62302 172.908 5.62302C165.084 5.62302 158.741 12.0334 158.741 19.9411C158.741 22.0026 159.172 23.9609 159.948 25.732C153.553 27.7823 147.281 30.2907 140.74 31.7205Z"/>
</mask>
<path d="M140.74 31.7205H199.269C200.052 30.3526 200.5 28.7647 200.5 27.0698C200.5 21.9298 196.376 17.7615 191.288 17.7615C189.752 17.7615 188.305 18.1434 187.032 18.8156C186.464 11.4342 180.357 5.62302 172.908 5.62302C165.084 5.62302 158.741 12.0334 158.741 19.9411C158.741 22.0026 159.172 23.9609 159.948 25.732C153.553 27.7823 147.281 30.2907 140.74 31.7205Z" fill="#E1E8EC"/>
<path d="M199.269 31.7205L199.703 31.9689L199.559 32.2205H199.269V31.7205ZM187.032 18.8156L187.266 19.2577L186.592 19.6136L186.534 18.854L187.032 18.8156ZM159.948 25.732L160.406 25.5314L160.628 26.039L160.1 26.2081L159.948 25.732ZM140.74 31.7205V31.2205H199.269V31.7205V32.2205H140.74V31.7205ZM199.269 31.7205L198.835 31.472C199.576 30.1781 200 28.6756 200 27.0698H200.5H201C201 28.8537 200.528 30.527 199.703 31.9689L199.269 31.7205ZM200.5 27.0698H200C200 22.2009 196.095 18.2615 191.288 18.2615V17.7615V17.2615C196.657 17.2615 201 21.6586 201 27.0698H200.5ZM191.288 17.7615V18.2615C189.836 18.2615 188.469 18.6223 187.266 19.2577L187.032 18.8156L186.799 18.3735C188.141 17.6644 189.668 17.2615 191.288 17.2615V17.7615ZM187.032 18.8156L186.534 18.854C185.985 11.7266 180.09 6.12302 172.908 6.12302V5.62302V5.12302C180.625 5.12302 186.943 11.1418 187.531 18.7773L187.032 18.8156ZM172.908 5.62302V6.12302C165.365 6.12302 159.241 12.3045 159.241 19.9411H158.741H158.241C158.241 11.7622 164.803 5.12302 172.908 5.12302V5.62302ZM158.741 19.9411H159.241C159.241 21.9323 159.657 23.8224 160.406 25.5314L159.948 25.732L159.49 25.9326C158.687 24.0995 158.241 22.073 158.241 19.9411H158.741ZM159.948 25.732L160.1 26.2081C153.751 28.2438 147.418 30.7726 140.847 32.2089L140.74 31.7205L140.633 31.232C147.144 29.8088 153.354 27.3209 159.795 25.2559L159.948 25.732Z" fill="black" mask="url(#path-18-outside-3_150_2880)"/>
<path d="M132.824 44.4061V100.851C128.311 102.269 123.729 103.432 119.158 104.325C113.146 105.504 107.152 106.213 101.357 106.426C96.855 106.594 92.0463 106.477 87.0916 106.057C80.5419 105.504 73.7351 104.425 67.0394 102.78C64.1851 102.077 61.3526 101.271 58.5658 100.362C58.4177 100.311 58.2673 100.263 58.117 100.212C55.2953 99.2764 52.5216 98.2305 49.8329 97.07C49.6739 97.0017 49.517 96.9335 49.3579 96.863C48.6193 96.5415 47.8872 96.2112 47.1638 95.8699C46.935 95.762 46.7063 95.6539 46.4796 95.5418C45.7454 95.1917 45.0198 94.8305 44.3008 94.4584V32.7969C44.3008 29.9054 46.6213 27.5605 49.4821 27.5605H73.2405C74.7831 27.5605 76.2452 28.2539 77.23 29.4542L83.6468 37.2735C84.6316 38.4738 86.0936 39.1674 87.6363 39.1674H127.642C129.59 39.1674 131.29 40.255 132.174 41.8649C132.588 42.618 132.824 43.4834 132.824 44.4061Z" fill="#3A484F"/>
<path d="M87.1123 105.807C92.0573 106.227 96.856 106.344 101.347 106.177H101.348C107.129 105.964 113.11 105.256 119.109 104.08C123.671 103.188 128.245 102.027 132.749 100.612C133.418 100.402 134.087 100.185 134.753 99.9637V44.4061C134.753 42.734 133.939 41.2558 132.692 40.3524L132.691 40.3514C131.883 39.7626 130.893 39.4178 129.821 39.4178H89.8154C88.1975 39.4178 86.6639 38.6902 85.6318 37.4324L79.2158 29.6131C78.2782 28.4703 76.8863 27.8104 75.4189 27.8104H51.6611C48.9409 27.8104 46.7296 30.0409 46.7295 32.7967V95.3856C46.9083 95.4725 47.0888 95.5577 47.2705 95.6434C47.9913 95.9835 48.7214 96.313 49.458 96.6336L49.459 96.6346L49.9316 96.8406C52.6131 97.998 55.38 99.0416 58.1953 99.9754H58.1963C58.3381 100.023 58.4991 100.075 58.6436 100.124C61.424 101.031 64.2503 101.836 67.0986 102.537C73.781 104.179 80.5751 105.256 87.1123 105.807Z" fill="#566B75" stroke="black" stroke-width="0.5"/>
<path d="M97.0439 54.0641H123.657C124.909 54.064 125.929 53.0377 125.929 51.7663V49.36C125.929 48.0884 124.909 47.0614 123.657 47.0612H97.0439C95.7922 47.0612 94.7725 48.0883 94.7725 49.36V51.7663L94.7842 52.0016C94.9008 53.1621 95.8705 54.0641 97.0439 54.0641Z" fill="#BBC7CD" stroke="#1C1C1C" stroke-width="0.5"/>
<path d="M57.7539 98.4435H84.3672C85.619 98.4433 86.6376 97.4172 86.6377 96.1456V93.7394C86.6377 92.4679 85.619 91.4407 84.3672 91.4406H57.7539C56.502 91.4406 55.4824 92.4678 55.4824 93.7394V96.1456L55.4941 96.381C55.6107 97.5416 56.5802 98.4435 57.7539 98.4435Z" fill="#BBC7CD" stroke="#1C1C1C" stroke-width="0.5"/>
<path d="M50.4941 36.0532H78.6482" stroke="#1C1C1C" stroke-width="0.5" stroke-miterlimit="10" stroke-linecap="round" stroke-linejoin="round"/>
<mask id="path-25-outside-4_150_2880" maskUnits="userSpaceOnUse" x="142.565" y="48.4769" width="13.908" height="13.9593" fill="black">
<rect fill="white" x="142.565" y="48.4769" width="13.908" height="13.9593"/>
<path d="M145.466 60.1629L152.345 50.1637L153.386 50.8954L146.507 60.895C146.307 61.1851 145.912 61.2569 145.624 61.0554C145.337 60.8527 145.266 60.4535 145.466 60.1629Z"/>
</mask>
<path d="M145.466 60.1629L152.345 50.1637L153.386 50.8954L146.507 60.895C146.307 61.1851 145.912 61.2569 145.624 61.0554C145.337 60.8527 145.266 60.4535 145.466 60.1629Z" fill="#F6F9FC"/>
<path d="M152.345 50.1637L151.934 49.8808L152.221 49.4641L152.633 49.7539L152.345 50.1637ZM153.386 50.8954L153.674 50.4855L154.079 50.7696L153.798 51.1783L153.386 50.8954ZM146.507 60.895L146.919 61.1778L146.918 61.1783L146.507 60.895ZM145.624 61.0554L145.337 61.4658L145.335 61.4647L145.624 61.0554ZM145.466 60.1629L145.054 59.88L151.934 49.8808L152.345 50.1637L152.756 50.4466L145.877 60.4457L145.466 60.1629ZM152.345 50.1637L152.633 49.7539L153.674 50.4855L153.386 50.8954L153.098 51.3053L152.057 50.5736L152.345 50.1637ZM153.386 50.8954L153.798 51.1783L146.919 61.1778L146.507 60.895L146.096 60.6121L152.975 50.6126L153.386 50.8954ZM146.507 60.895L146.918 61.1783C146.56 61.6977 145.852 61.8258 145.337 61.4658L145.624 61.0554L145.911 60.6449C145.973 60.688 146.055 60.6726 146.097 60.6117L146.507 60.895ZM145.624 61.0554L145.335 61.4647C144.826 61.1048 144.699 60.3974 145.054 59.8804L145.466 60.1629L145.877 60.4453C145.833 60.5095 145.849 60.6006 145.913 60.6461L145.624 61.0554Z" fill="black" mask="url(#path-25-outside-4_150_2880)"/>
<mask id="path-27-outside-5_150_2880" maskUnits="userSpaceOnUse" x="147.265" y="35.9731" width="18.544" height="18.6124" fill="black">
<rect fill="white" x="147.265" y="35.9731" width="18.544" height="18.6124"/>
<path d="M153.249 49.9718C155.833 51.7878 159.397 51.1404 161.195 48.5285C162.991 45.9167 162.35 42.3149 159.767 40.4988C157.182 38.6829 153.618 39.3302 151.821 41.9421C150.024 44.5539 150.665 48.1557 153.249 49.9718ZM152.524 51.0242C149.361 48.8015 148.58 44.4073 150.779 41.21C152.979 38.0131 157.327 37.2233 160.49 39.446C163.654 41.6691 164.436 46.0633 162.236 49.2601C160.036 52.4575 155.688 53.2473 152.524 51.0242Z"/>
</mask>
<path d="M153.249 49.9718C155.833 51.7878 159.397 51.1404 161.195 48.5285C162.991 45.9167 162.35 42.3149 159.767 40.4988C157.182 38.6829 153.618 39.3302 151.821 41.9421C150.024 44.5539 150.665 48.1557 153.249 49.9718ZM152.524 51.0242C149.361 48.8015 148.58 44.4073 150.779 41.21C152.979 38.0131 157.327 37.2233 160.49 39.446C163.654 41.6691 164.436 46.0633 162.236 49.2601C160.036 52.4575 155.688 53.2473 152.524 51.0242Z" fill="#F6F9FC"/>
<path d="M153.249 49.9718L152.961 50.3816L152.961 50.3816L153.249 49.9718ZM161.195 48.5285L161.606 48.8113L161.606 48.8114L161.195 48.5285ZM159.767 40.4988L160.054 40.0889L160.055 40.089L159.767 40.4988ZM151.821 41.9421L151.41 41.6593L151.41 41.6593L151.821 41.9421ZM150.779 41.21L150.368 40.9272L150.368 40.9271L150.779 41.21ZM160.49 39.446L160.778 39.0361L160.778 39.0361L160.49 39.446ZM162.236 49.2601L161.825 48.9773L161.825 48.9773L162.236 49.2601ZM153.249 49.9718L153.537 49.5619C155.894 51.2183 159.144 50.6281 160.783 48.2456L161.195 48.5285L161.606 48.8114C159.65 51.6528 155.772 52.3573 152.961 50.3816L153.249 49.9718ZM161.195 48.5285L160.783 48.2456C162.424 45.8602 161.839 42.5674 159.479 40.9086L159.767 40.4988L160.055 40.089C162.862 42.0624 163.558 45.9732 161.606 48.8113L161.195 48.5285ZM159.767 40.4988L159.479 40.9087C157.121 39.2523 153.871 39.8426 152.232 42.225L151.821 41.9421L151.41 41.6593C153.365 38.8178 157.243 38.1135 160.054 40.0889L159.767 40.4988ZM151.821 41.9421L152.232 42.2249C150.591 44.6104 151.177 47.9032 153.537 49.5619L153.249 49.9718L152.961 50.3816C150.153 48.4081 149.458 44.4974 151.41 41.6593L151.821 41.9421ZM152.524 51.0242L152.236 51.4341C148.849 49.054 148.013 44.3508 150.368 40.9272L150.779 41.21L151.19 41.4928C149.147 44.4638 149.873 48.549 152.812 50.6144L152.524 51.0242ZM150.779 41.21L150.368 40.9271C152.726 37.5008 157.388 36.6539 160.778 39.0361L160.49 39.446L160.203 39.8558C157.266 37.7928 153.232 38.5255 151.19 41.4929L150.779 41.21ZM160.49 39.446L160.778 39.0361C164.166 41.4166 165.003 46.1198 162.647 49.543L162.236 49.2601L161.825 48.9773C163.869 46.0067 163.142 41.9216 160.202 39.8558L160.49 39.446ZM162.236 49.2601L162.647 49.543C160.289 52.9699 155.627 53.8168 152.236 51.4341L152.524 51.0242L152.812 50.6144C155.749 52.6779 159.783 51.9451 161.825 48.9773L162.236 49.2601Z" fill="black" mask="url(#path-27-outside-5_150_2880)"/>
<path d="M122.985 32.8906L131.466 27.5605C133.626 28.7936 136.065 29.4442 138.56 29.4443C146.528 29.4443 153.006 22.8941 153.006 14.8476C153.006 6.80096 146.528 0.249939 138.56 0.249939C130.591 0.250045 124.113 6.80103 124.113 14.8476C124.113 17.3257 124.738 19.7588 125.921 21.916L122.613 32.6044L122.414 33.249L122.985 32.8906Z" fill="#E1E8EC" stroke="black" stroke-width="0.5"/>
<mask id="path-30-outside-6_150_2880" maskUnits="userSpaceOnUse" x="134.196" y="7.19849" width="9" height="12" fill="black">
<rect fill="white" x="134.196" y="7.19849" width="9" height="12"/>
<path d="M138.322 18.1981C137.939 18.1843 137.64 17.8598 137.653 17.4731L137.772 14.0231C137.785 13.6358 138.107 13.3334 138.49 13.3467C139.579 13.3855 140.496 12.5206 140.534 11.4196C140.572 10.3187 139.717 9.39192 138.628 9.35361C137.538 9.31478 136.621 10.1792 136.583 11.2802C136.57 11.6674 136.248 11.9698 135.865 11.9566C135.483 11.9428 135.184 11.6184 135.197 11.2316C135.261 9.35769 136.822 7.88686 138.676 7.95225C140.53 8.01764 141.986 9.59525 141.921 11.4687C141.864 13.102 140.67 14.4298 139.137 14.6995L139.04 17.5216C139.026 17.9089 138.705 18.2113 138.322 18.1981Z"/>
</mask>
<path d="M138.322 18.1981C137.939 18.1843 137.64 17.8598 137.653 17.4731L137.772 14.0231C137.785 13.6358 138.107 13.3334 138.49 13.3467C139.579 13.3855 140.496 12.5206 140.534 11.4196C140.572 10.3187 139.717 9.39192 138.628 9.35361C137.538 9.31478 136.621 10.1792 136.583 11.2802C136.57 11.6674 136.248 11.9698 135.865 11.9566C135.483 11.9428 135.184 11.6184 135.197 11.2316C135.261 9.35769 136.822 7.88686 138.676 7.95225C140.53 8.01764 141.986 9.59525 141.921 11.4687C141.864 13.102 140.67 14.4298 139.137 14.6995L139.04 17.5216C139.026 17.9089 138.705 18.2113 138.322 18.1981Z" fill="#E1E8EC"/>
<path d="M137.653 17.4731L138.153 17.4903L138.153 17.4907L137.653 17.4731ZM137.772 14.0231L138.272 14.0401L138.272 14.0403L137.772 14.0231ZM138.49 13.3467L138.507 12.847L138.508 12.847L138.49 13.3467ZM138.628 9.35361L138.61 9.8533L138.61 9.85329L138.628 9.35361ZM136.583 11.2802L136.083 11.2632L136.083 11.2627L136.583 11.2802ZM135.865 11.9566L135.848 12.4563L135.847 12.4562L135.865 11.9566ZM135.197 11.2316L134.697 11.2146L134.697 11.2144L135.197 11.2316ZM141.921 11.4687L142.421 11.4859L142.421 11.486L141.921 11.4687ZM139.137 14.6995L138.637 14.6822L138.651 14.2773L139.051 14.2071L139.137 14.6995ZM139.04 17.5216L139.539 17.5389L139.539 17.5393L139.04 17.5216ZM138.322 18.1981L138.304 18.6977C137.641 18.6739 137.131 18.1136 137.154 17.4555L137.653 17.4731L138.153 17.4907C138.149 17.6061 138.237 17.6947 138.34 17.6984L138.322 18.1981ZM137.653 17.4731L137.154 17.4559L137.273 14.0059L137.772 14.0231L138.272 14.0403L138.153 17.4903L137.653 17.4731ZM137.772 14.0231L137.273 14.0061C137.295 13.3469 137.844 12.824 138.507 12.847L138.49 13.3467L138.473 13.8464C138.37 13.8428 138.276 13.9248 138.272 14.0401L137.772 14.0231ZM138.49 13.3467L138.508 12.847C139.315 12.8758 140.006 12.2324 140.035 11.4024L140.534 11.4196L141.034 11.4368C140.987 12.8088 139.843 13.8952 138.472 13.8464L138.49 13.3467ZM140.534 11.4196L140.035 11.4024C140.063 10.5722 139.419 9.88174 138.61 9.8533L138.628 9.35361L138.645 8.85391C140.016 8.90211 141.081 10.0651 141.034 11.4368L140.534 11.4196ZM138.628 9.35361L138.61 9.85329C137.802 9.82449 137.111 10.4675 137.083 11.2976L136.583 11.2802L136.083 11.2627C136.131 9.8909 137.275 8.80507 138.645 8.85392L138.628 9.35361ZM136.583 11.2802L137.083 11.2971C137.06 11.9562 136.511 12.4793 135.848 12.4563L135.865 11.9566L135.883 11.4569C135.985 11.4604 136.079 11.3787 136.083 11.2632L136.583 11.2802ZM135.865 11.9566L135.847 12.4562C135.184 12.4323 134.675 11.872 134.697 11.2146L135.197 11.2316L135.696 11.2486C135.692 11.3647 135.781 11.4532 135.884 11.4569L135.865 11.9566ZM135.197 11.2316L134.697 11.2144C134.771 9.06928 136.559 7.37725 138.694 7.45256L138.676 7.95225L138.658 8.45194C137.086 8.39646 135.752 9.6461 135.696 11.2489L135.197 11.2316ZM138.676 7.95225L138.694 7.45256C140.828 7.52786 142.495 9.34162 142.421 11.4859L141.921 11.4687L141.421 11.4514C141.477 9.84888 140.231 8.50743 138.658 8.45194L138.676 7.95225ZM141.921 11.4687L142.421 11.486C142.356 13.3569 140.988 14.8815 139.224 15.1919L139.137 14.6995L139.051 14.2071C140.353 13.978 141.373 12.847 141.421 11.4513L141.921 11.4687ZM139.137 14.6995L139.637 14.7168L139.539 17.5389L139.04 17.5216L138.54 17.5044L138.637 14.6822L139.137 14.6995ZM139.04 17.5216L139.539 17.5393C139.516 18.1972 138.969 18.7208 138.305 18.6978L138.322 18.1981L138.34 17.6984C138.441 17.7019 138.536 17.6206 138.54 17.504L139.04 17.5216Z" fill="black" mask="url(#path-30-outside-6_150_2880)"/>
<mask id="path-32-outside-7_150_2880" maskUnits="userSpaceOnUse" x="136.232" y="18.7437" width="4" height="4" fill="black">
<rect fill="white" x="136.232" y="18.7437" width="4" height="4"/>
<path d="M139.451 20.6614C139.43 21.2806 138.916 21.7649 138.304 21.743C137.691 21.7215 137.212 21.2019 137.233 20.5833C137.255 19.9641 137.768 19.4797 138.381 19.5012C138.993 19.5232 139.473 20.0422 139.451 20.6614Z"/>
</mask>
<path d="M139.451 20.6614C139.43 21.2806 138.916 21.7649 138.304 21.743C137.691 21.7215 137.212 21.2019 137.233 20.5833C137.255 19.9641 137.768 19.4797 138.381 19.5012C138.993 19.5232 139.473 20.0422 139.451 20.6614Z" fill="#E1E8EC"/>
<path d="M138.304 21.743L138.321 21.2433L138.322 21.2433L138.304 21.743ZM137.233 20.5833L136.733 20.5661L136.733 20.5657L137.233 20.5833ZM138.381 19.5012L138.399 19.0015L138.399 19.0015L138.381 19.5012ZM139.451 20.6614L139.951 20.6786C139.92 21.5688 139.18 22.2747 138.286 22.2426L138.304 21.743L138.322 21.2433C138.653 21.2552 138.94 20.9924 138.952 20.6443L139.451 20.6614ZM138.304 21.743L138.286 22.2427C137.393 22.2114 136.703 21.4555 136.733 20.5661L137.233 20.5833L137.733 20.6004C137.721 20.9483 137.989 21.2317 138.321 21.2433L138.304 21.743ZM137.233 20.5833L136.733 20.5657C136.765 19.6758 137.505 18.9702 138.399 19.0015L138.381 19.5012L138.364 20.0009C138.032 19.9893 137.745 20.2523 137.733 20.6008L137.233 20.5833ZM138.381 19.5012L138.399 19.0015C139.292 19.0335 139.981 19.7886 139.951 20.6786L139.451 20.6614L138.952 20.6443C138.964 20.2959 138.695 20.0128 138.363 20.0009L138.381 19.5012Z" fill="black" mask="url(#path-32-outside-7_150_2880)"/>
<mask id="path-34-outside-8_150_2880" maskUnits="userSpaceOnUse" x="30.7624" y="46.4495" width="7.83347" height="7.85469" fill="black">
<rect fill="white" x="30.7624" y="46.4495" width="7.83347" height="7.85469"/>
<path d="M36.2679 53.0043L32.2699 47.7558L32.8164 47.3305L36.8148 52.5788C36.9307 52.7313 36.9026 52.9501 36.7519 53.0679C36.6007 53.185 36.3842 53.1566 36.2679 53.0043Z"/>
</mask>
<path d="M36.2679 53.0043L32.2699 47.7558L32.8164 47.3305L36.8148 52.5788C36.9307 52.7313 36.9026 52.9501 36.7519 53.0679C36.6007 53.185 36.3842 53.1566 36.2679 53.0043Z" fill="#F6F9FC"/>
<path d="M32.2699 47.7558L31.8727 48.0583L31.5724 47.6641L31.9624 47.3606L32.2699 47.7558ZM32.8164 47.3305L32.509 46.9353L32.9071 46.6256L33.2136 47.0279L32.8164 47.3305ZM36.8148 52.5788L37.212 52.2762L37.2123 52.2766L36.8148 52.5788ZM36.7519 53.0679L37.0601 53.4624L37.0585 53.4637L36.7519 53.0679ZM36.2679 53.0043L35.8707 53.3069L31.8727 48.0583L32.2699 47.7558L32.6671 47.4532L36.6652 52.7017L36.2679 53.0043ZM32.2699 47.7558L31.9624 47.3606L32.509 46.9353L32.8164 47.3305L33.1239 47.7257L32.5773 48.1509L32.2699 47.7558ZM32.8164 47.3305L33.2136 47.0279L37.212 52.2762L36.8148 52.5788L36.4176 52.8814L32.4192 47.6331L32.8164 47.3305ZM36.8148 52.5788L37.2123 52.2766C37.4943 52.6476 37.4257 53.1767 37.0601 53.4624L36.7519 53.0679L36.4436 52.6733C36.3795 52.7235 36.3672 52.815 36.4173 52.881L36.8148 52.5788ZM36.7519 53.0679L37.0585 53.4637C36.6886 53.7503 36.1562 53.6809 35.871 53.3073L36.2679 53.0043L36.6648 52.7013C36.6122 52.6323 36.5128 52.6198 36.4452 52.6721L36.7519 53.0679Z" fill="black" mask="url(#path-34-outside-8_150_2880)"/>
<mask id="path-36-outside-9_150_2880" maskUnits="userSpaceOnUse" x="24.6493" y="38.9628" width="11.1907" height="11.221" fill="black">
<rect fill="white" x="24.6493" y="38.9628" width="11.1907" height="11.221"/>
<path d="M32.3206 47.2506C33.6771 46.1951 33.931 44.2214 32.8866 42.8502C31.8422 41.4796 29.8893 41.223 28.5329 42.2782C27.1764 43.3339 26.9225 45.3076 27.9668 46.6785C29.0112 48.0491 30.9641 48.3057 32.3206 47.2506ZM32.7413 47.8032C31.0811 49.095 28.6985 48.782 27.42 47.104C26.1418 45.4258 26.4515 43.0179 28.1118 41.7258C29.7724 40.4337 32.155 40.7468 33.4332 42.425C34.7116 44.1032 34.4019 46.5111 32.7413 47.8032Z"/>
</mask>
<path d="M32.3206 47.2506C33.6771 46.1951 33.931 44.2214 32.8866 42.8502C31.8422 41.4796 29.8893 41.223 28.5329 42.2782C27.1764 43.3339 26.9225 45.3076 27.9668 46.6785C29.0112 48.0491 30.9641 48.3057 32.3206 47.2506ZM32.7413 47.8032C31.0811 49.095 28.6985 48.782 27.42 47.104C26.1418 45.4258 26.4515 43.0179 28.1118 41.7258C29.7724 40.4337 32.155 40.7468 33.4332 42.425C34.7116 44.1032 34.4019 46.5111 32.7413 47.8032Z" fill="#F6F9FC"/>
<path d="M32.3206 47.2506L32.628 47.6457L32.628 47.6457L32.3206 47.2506ZM32.8866 42.8502L33.2838 42.5476L33.2839 42.5477L32.8866 42.8502ZM28.5329 42.2782L28.2254 41.8831L28.2255 41.883L28.5329 42.2782ZM27.9668 46.6785L27.5697 46.9811L27.5696 46.9811L27.9668 46.6785ZM27.42 47.104L27.0228 47.4066L27.0227 47.4065L27.42 47.104ZM28.1118 41.7258L27.8044 41.3307L27.8044 41.3306L28.1118 41.7258ZM33.4332 42.425L33.036 42.7276L33.0359 42.7275L33.4332 42.425ZM32.3206 47.2506L32.0131 46.8554C33.1535 45.9681 33.3674 44.3056 32.4894 43.1528L32.8866 42.8502L33.2839 42.5477C34.4945 44.1372 34.2006 46.4221 32.628 47.6457L32.3206 47.2506ZM32.8866 42.8502L32.4895 43.1529C31.6138 42.0037 29.9775 41.7887 28.8403 42.6734L28.5329 42.2782L28.2255 41.883C29.8011 40.6573 32.0706 40.9555 33.2838 42.5476L32.8866 42.8502ZM28.5329 42.2782L28.8404 42.6733C27.6999 43.561 27.4861 45.2234 28.364 46.3759L27.9668 46.6785L27.5696 46.9811C26.3589 45.3918 26.6529 43.1069 28.2254 41.8831L28.5329 42.2782ZM27.9668 46.6785L28.364 46.3759C29.2396 47.525 30.8759 47.74 32.0132 46.8554L32.3206 47.2506L32.628 47.6457C31.0523 48.8715 28.7828 48.5733 27.5697 46.9811L27.9668 46.6785ZM32.7413 47.8032L33.0488 48.1983C31.1693 49.6608 28.4701 49.3061 27.0228 47.4066L27.42 47.104L27.8172 46.8014C28.9269 48.2579 30.9929 48.5293 32.4339 47.408L32.7413 47.8032ZM27.42 47.104L27.0227 47.4065C25.5782 45.51 25.928 42.7909 27.8044 41.3307L28.1118 41.7258L28.4193 42.1209C26.9751 43.2449 26.7053 45.3416 27.8172 46.8015L27.42 47.104ZM28.1118 41.7258L27.8044 41.3306C29.6842 39.868 32.3834 40.2226 33.8304 42.1224L33.4332 42.425L33.0359 42.7275C31.9265 41.2709 29.8607 40.9995 28.4193 42.121L28.1118 41.7258ZM33.4332 42.425L33.8304 42.1224C35.2752 44.019 34.9254 46.7382 33.0488 48.1983L32.7413 47.8032L32.4339 47.408C33.8784 46.2841 34.1481 44.1874 33.036 42.7276L33.4332 42.425Z" fill="black" mask="url(#path-36-outside-9_150_2880)"/>
</g>
</svg>
